<mxfile host="65bd71144e">
    <diagram id="CijceSB6X4m3iTDktMe_" name="Page-1">
        <mxGraphModel dx="335" dy="212" grid="1" gridSize="10" guides="1" tooltips="1" connect="1" arrows="1" fold="1" page="1" pageScale="1" pageWidth="850" pageHeight="1100" math="0" shadow="0">
            <root>
                <mxCell id="0"/>
                <mxCell id="1" parent="0"/>
                <mxCell id="177" value="" style="whiteSpace=wrap;html=1;aspect=fixed;rounded=0;strokeColor=#666666;strokeWidth=1;fontSize=14;fontColor=#333333;fillColor=#f5f5f5;shadow=0;" vertex="1" parent="1">
                    <mxGeometry y="1" width="1139" height="1139" as="geometry"/>
                </mxCell>
                <mxCell id="6" value="Login" style="text;html=1;strokeColor=none;fillColor=#f5f5f5;align=center;verticalAlign=middle;whiteSpace=wrap;rounded=0;fontColor=#333333;" parent="1" vertex="1">
                    <mxGeometry x="395" y="20" width="60" height="30" as="geometry"/>
                </mxCell>
                <mxCell id="13" value="" style="group;" vertex="1" connectable="0" parent="1">
                    <mxGeometry x="590" y="60" width="200" height="400" as="geometry"/>
                </mxCell>
                <mxCell id="14" value="" style="rounded=1;whiteSpace=wrap;html=1;fillColor=#18141D;" vertex="1" parent="13">
                    <mxGeometry width="200" height="390" as="geometry"/>
                </mxCell>
                <mxCell id="113" value="" style="rounded=1;whiteSpace=wrap;html=1;fillColor=#f5f5f5;fontColor=#333333;strokeColor=#666666;" vertex="1" parent="13">
                    <mxGeometry x="5" y="5" width="190" height="380" as="geometry"/>
                </mxCell>
                <mxCell id="15" value="" style="rounded=1;whiteSpace=wrap;html=1;arcSize=35;strokeColor=none;fillColor=#18141D;" vertex="1" parent="13">
                    <mxGeometry x="40" y="1" width="120" height="20" as="geometry"/>
                </mxCell>
                <mxCell id="115" value="" style="rounded=1;whiteSpace=wrap;html=1;strokeWidth=1;fontSize=14;arcSize=50;strokeColor=none;fillColor=#18141D;" vertex="1" parent="13">
                    <mxGeometry x="50" y="374" width="100" height="5" as="geometry"/>
                </mxCell>
                <mxCell id="213" value="&lt;font style=&quot;font-size: 9px;&quot;&gt;&lt;br&gt;&lt;br&gt;&lt;br&gt;Driver Information&lt;br&gt;&lt;/font&gt;" style="rounded=1;whiteSpace=wrap;html=1;shadow=0;strokeColor=#F0F0F0;strokeWidth=1;fontSize=14;fontColor=#18141D;fillColor=#E6E6E6;align=center;" vertex="1" parent="13">
                    <mxGeometry x="20" y="50" width="160" height="60" as="geometry"/>
                </mxCell>
                <mxCell id="214" value="" style="line;strokeWidth=1;html=1;rounded=0;fillColor=#f5f5f5;fontColor=#333333;strokeColor=#666666;" vertex="1" parent="13">
                    <mxGeometry x="5" y="330" width="190" height="10" as="geometry"/>
                </mxCell>
                <mxCell id="215" value="" style="shape=actor;whiteSpace=wrap;html=1;rounded=0;shadow=0;strokeColor=#F0F0F0;strokeWidth=1;fontSize=14;fontColor=#18141D;fillColor=#707070;" vertex="1" parent="13">
                    <mxGeometry x="40" y="342.5" width="10" height="15" as="geometry"/>
                </mxCell>
                <mxCell id="216" value="Settings" style="text;html=1;strokeColor=none;fillColor=none;align=center;verticalAlign=middle;whiteSpace=wrap;rounded=0;shadow=0;strokeWidth=1;fontSize=8;fontColor=#575757;" vertex="1" parent="13">
                    <mxGeometry x="125" y="354" width="60" height="20" as="geometry"/>
                </mxCell>
                <mxCell id="217" value="" style="sketch=0;outlineConnect=0;fontColor=#232F3E;gradientColor=none;fillColor=#707070;strokeColor=#F0F0F0;dashed=0;verticalLabelPosition=bottom;verticalAlign=top;align=center;html=1;fontSize=12;fontStyle=0;aspect=fixed;pointerEvents=1;shape=mxgraph.aws4.gear;rounded=0;shadow=0;strokeWidth=1;rotation=15;" vertex="1" parent="13">
                    <mxGeometry x="147.5" y="342.5" width="15" height="15" as="geometry"/>
                </mxCell>
                <mxCell id="218" value="Children" style="text;html=1;strokeColor=none;fillColor=none;align=center;verticalAlign=middle;whiteSpace=wrap;rounded=0;shadow=0;strokeWidth=1;fontSize=8;fontColor=#575757;" vertex="1" parent="13">
                    <mxGeometry x="15" y="354" width="60" height="20" as="geometry"/>
                </mxCell>
                <mxCell id="219" value="" style="sketch=0;outlineConnect=0;gradientColor=none;fontColor=#545B64;strokeColor=default;fillColor=#707070;dashed=0;verticalLabelPosition=bottom;verticalAlign=top;align=center;html=1;fontSize=12;fontStyle=0;aspect=fixed;shape=mxgraph.aws4.illustration_office_building;pointerEvents=1;rounded=0;shadow=0;strokeWidth=5;" vertex="1" parent="13">
                    <mxGeometry x="85.92" y="340" width="28.17" height="20" as="geometry"/>
                </mxCell>
                <mxCell id="220" value="Organizations" style="text;html=1;strokeColor=none;fillColor=none;align=center;verticalAlign=middle;whiteSpace=wrap;rounded=0;shadow=0;strokeWidth=1;fontSize=8;fontColor=#575757;" vertex="1" parent="13">
                    <mxGeometry x="69.99999999999999" y="354" width="60" height="20" as="geometry"/>
                </mxCell>
                <mxCell id="221" value="&lt;font style=&quot;font-size: 9px;&quot;&gt;&lt;br&gt;&lt;br&gt;&lt;br&gt;&lt;br&gt;&lt;br&gt;Upcoming Pickups&lt;/font&gt;" style="rounded=1;whiteSpace=wrap;html=1;shadow=0;strokeColor=#F0F0F0;strokeWidth=1;fontSize=14;fontColor=#18141D;fillColor=#E6E6E6;align=center;" vertex="1" parent="13">
                    <mxGeometry x="20" y="136" width="160" height="100" as="geometry"/>
                </mxCell>
                <mxCell id="223" value="&lt;font style=&quot;font-size: 9px;&quot;&gt;&lt;br&gt;&lt;br&gt;Babysitters&lt;/font&gt;" style="rounded=1;whiteSpace=wrap;html=1;shadow=0;strokeColor=#F0F0F0;strokeWidth=1;fontSize=14;fontColor=#18141D;fillColor=#E6E6E6;" vertex="1" parent="13">
                    <mxGeometry x="74.99999999999999" y="260" width="50" height="50" as="geometry"/>
                </mxCell>
                <mxCell id="225" value="&lt;font style=&quot;font-size: 9px;&quot;&gt;&lt;br&gt;&lt;br&gt;Parents&lt;/font&gt;" style="rounded=1;whiteSpace=wrap;html=1;shadow=0;strokeColor=#F0F0F0;strokeWidth=1;fontSize=14;fontColor=#18141D;fillColor=#E6E6E6;" vertex="1" parent="13">
                    <mxGeometry x="20" y="260" width="50" height="50" as="geometry"/>
                </mxCell>
                <mxCell id="226" value="" style="rounded=1;whiteSpace=wrap;html=1;shadow=0;strokeColor=#F0F0F0;strokeWidth=1;fontSize=14;fontColor=#18141D;fillColor=#E6E6E6;" vertex="1" parent="13">
                    <mxGeometry x="130" y="260" width="50" height="50" as="geometry"/>
                </mxCell>
                <mxCell id="227" value="" style="image;html=1;image=img/lib/clip_art/people/Suit_Man_Green_Black_128x128.png;rounded=0;shadow=0;strokeColor=default;strokeWidth=5;fontSize=9;fontColor=#F0F0F0;fillColor=#707070;" vertex="1" parent="13">
                    <mxGeometry x="83.00999999999999" y="60" width="40" height="40" as="geometry"/>
                </mxCell>
                <mxCell id="228" value="" style="image;html=1;image=img/lib/clip_art/general/Keys_128x128.png;rounded=0;shadow=0;strokeColor=default;strokeWidth=5;fontSize=9;fontColor=#F0F0F0;fillColor=#707070;" vertex="1" parent="13">
                    <mxGeometry x="60" y="146" width="80" height="80" as="geometry"/>
                </mxCell>
                <mxCell id="229" value="" style="image;html=1;image=img/lib/clip_art/people/Suit_Woman_Blue_128x128.png;rounded=0;shadow=0;strokeColor=default;strokeWidth=5;fontSize=9;fontColor=#F0F0F0;fillColor=#707070;" vertex="1" parent="13">
                    <mxGeometry x="25" y="260" width="40" height="40" as="geometry"/>
                </mxCell>
                <mxCell id="231" value="" style="image;html=1;image=img/lib/clip_art/people/Worker_Man_128x128.png;rounded=0;shadow=0;strokeColor=default;strokeWidth=5;fontSize=9;fontColor=#F0F0F0;fillColor=#707070;" vertex="1" parent="13">
                    <mxGeometry x="79.99999999999999" y="260" width="40" height="40" as="geometry"/>
                </mxCell>
                <mxCell id="20" value="Home - Not Enroute to Pick Up Point" style="text;html=1;strokeColor=none;fillColor=#f5f5f5;align=center;verticalAlign=middle;whiteSpace=wrap;rounded=0;fontColor=#333333;" vertex="1" parent="1">
                    <mxGeometry x="640" y="20" width="100" height="30" as="geometry"/>
                </mxCell>
                <mxCell id="30" value="Registration" style="text;html=1;strokeColor=none;fillColor=#f5f5f5;align=center;verticalAlign=middle;whiteSpace=wrap;rounded=0;fontColor=#333333;" vertex="1" parent="1">
                    <mxGeometry x="130" y="20" width="60" height="30" as="geometry"/>
                </mxCell>
                <mxCell id="61" value="Home - Navigating" style="text;html=1;strokeColor=none;fillColor=#f5f5f5;align=center;verticalAlign=middle;whiteSpace=wrap;rounded=0;fontColor=#333333;" vertex="1" parent="1">
                    <mxGeometry x="630" y="510" width="120" height="30" as="geometry"/>
                </mxCell>
                <mxCell id="91" value="&lt;font color=&quot;#18141d&quot;&gt;Assigned Pick Up Time (XX:XX)&lt;/font&gt;" style="text;html=1;strokeColor=none;fillColor=none;align=center;verticalAlign=middle;whiteSpace=wrap;rounded=0;" vertex="1" parent="1">
                    <mxGeometry x="810" y="600" width="100" height="30" as="geometry"/>
                </mxCell>
                <mxCell id="102" value="&lt;font color=&quot;#18141d&quot;&gt;Current ETA to Pick Up Location&lt;/font&gt;" style="text;html=1;strokeColor=none;fillColor=none;align=center;verticalAlign=middle;whiteSpace=wrap;rounded=0;" vertex="1" parent="1">
                    <mxGeometry x="810" y="867" width="100" height="30" as="geometry"/>
                </mxCell>
                <mxCell id="164" style="edgeStyle=none;rounded=0;html=1;exitX=1;exitY=0.5;exitDx=0;exitDy=0;entryX=0;entryY=0.5;entryDx=0;entryDy=0;strokeColor=#666666;fontSize=14;fontColor=#EEEEEE;fillColor=#f5f5f5;" edge="1" parent="1" source="142" target="156">
                    <mxGeometry relative="1" as="geometry"/>
                </mxCell>
                <mxCell id="142" value="" style="rounded=1;whiteSpace=wrap;html=1;fillColor=#18141D;" vertex="1" parent="1">
                    <mxGeometry x="60" y="60" width="200" height="390" as="geometry"/>
                </mxCell>
                <mxCell id="143" value="" style="rounded=1;whiteSpace=wrap;html=1;fillColor=#f5f5f5;fontColor=#333333;strokeColor=#666666;" vertex="1" parent="1">
                    <mxGeometry x="65" y="65" width="190" height="380" as="geometry"/>
                </mxCell>
                <mxCell id="144" value="" style="rounded=1;whiteSpace=wrap;html=1;arcSize=35;strokeColor=none;fillColor=#18141D;" vertex="1" parent="1">
                    <mxGeometry x="100" y="61" width="120" height="20" as="geometry"/>
                </mxCell>
                <mxCell id="145" value="&lt;h1&gt;DORBELLO&lt;/h1&gt;" style="text;html=1;strokeColor=none;fillColor=#f5f5f5;align=center;verticalAlign=middle;whiteSpace=wrap;rounded=0;fontColor=#333333;" vertex="1" parent="1">
                    <mxGeometry x="130" y="130" width="60" height="30" as="geometry"/>
                </mxCell>
                <mxCell id="146" value="" style="rounded=1;whiteSpace=wrap;html=1;strokeWidth=1;fontSize=14;arcSize=50;strokeColor=none;fillColor=#18141D;" vertex="1" parent="1">
                    <mxGeometry x="110" y="434" width="100" height="5" as="geometry"/>
                </mxCell>
                <mxCell id="147" value="Enter a unique username" style="rounded=0;whiteSpace=wrap;html=1;fillColor=#f5f5f5;fontColor=#333333;strokeColor=#666666;" vertex="1" parent="1">
                    <mxGeometry x="80" y="180" width="160" height="20" as="geometry"/>
                </mxCell>
                <mxCell id="148" value="Enter a unique password" style="rounded=0;whiteSpace=wrap;html=1;fillColor=#f5f5f5;fontColor=#333333;strokeColor=#666666;" vertex="1" parent="1">
                    <mxGeometry x="80" y="210" width="160" height="20" as="geometry"/>
                </mxCell>
                <mxCell id="149" value="Confirm password" style="rounded=0;whiteSpace=wrap;html=1;fillColor=#f5f5f5;fontColor=#333333;strokeColor=#666666;" vertex="1" parent="1">
                    <mxGeometry x="80" y="240" width="160" height="20" as="geometry"/>
                </mxCell>
                <mxCell id="150" value="Parent 1 Full Name" style="rounded=0;whiteSpace=wrap;html=1;fillColor=#f5f5f5;fontColor=#333333;strokeColor=#666666;" vertex="1" parent="1">
                    <mxGeometry x="80" y="270" width="160" height="20" as="geometry"/>
                </mxCell>
                <mxCell id="151" value="Parent 1 Email" style="rounded=0;whiteSpace=wrap;html=1;fillColor=#f5f5f5;fontColor=#333333;strokeColor=#666666;" vertex="1" parent="1">
                    <mxGeometry x="80" y="300" width="160" height="20" as="geometry"/>
                </mxCell>
                <mxCell id="152" value="Add Parent +" style="rounded=0;whiteSpace=wrap;html=1;fillColor=#f5f5f5;fontColor=#333333;strokeColor=#666666;" vertex="1" parent="1">
                    <mxGeometry x="80" y="360" width="160" height="20" as="geometry"/>
                </mxCell>
                <mxCell id="153" value="Parent 1 Phone Number&amp;nbsp;" style="rounded=0;whiteSpace=wrap;html=1;fillColor=#f5f5f5;fontColor=#333333;strokeColor=#666666;" vertex="1" parent="1">
                    <mxGeometry x="80" y="330" width="160" height="20" as="geometry"/>
                </mxCell>
                <mxCell id="155" value="" style="group;" vertex="1" connectable="0" parent="1">
                    <mxGeometry x="325" y="60" width="200" height="400" as="geometry"/>
                </mxCell>
                <mxCell id="156" value="" style="rounded=1;whiteSpace=wrap;html=1;fillColor=#18141D;" vertex="1" parent="155">
                    <mxGeometry width="200" height="390" as="geometry"/>
                </mxCell>
                <mxCell id="157" value="" style="rounded=1;whiteSpace=wrap;html=1;fillColor=#f5f5f5;fontColor=#333333;strokeColor=#666666;" vertex="1" parent="155">
                    <mxGeometry x="5" y="5" width="190" height="380" as="geometry"/>
                </mxCell>
                <mxCell id="158" value="" style="rounded=1;whiteSpace=wrap;html=1;arcSize=35;strokeColor=none;fillColor=#18141D;" vertex="1" parent="155">
                    <mxGeometry x="40" y="1" width="120" height="20" as="geometry"/>
                </mxCell>
                <mxCell id="159" value="&lt;h1&gt;DORBELLO&lt;/h1&gt;" style="text;html=1;strokeColor=none;fillColor=#f5f5f5;align=center;verticalAlign=middle;whiteSpace=wrap;rounded=0;fontColor=#333333;" vertex="1" parent="155">
                    <mxGeometry x="70" y="70" width="60" height="30" as="geometry"/>
                </mxCell>
                <mxCell id="160" value="Username" style="rounded=0;whiteSpace=wrap;html=1;fillColor=#f5f5f5;fontColor=#333333;strokeColor=#666666;" vertex="1" parent="155">
                    <mxGeometry x="20" y="155" width="160" height="20" as="geometry"/>
                </mxCell>
                <mxCell id="161" value="Password" style="rounded=0;whiteSpace=wrap;html=1;fillColor=#f5f5f5;fontColor=#333333;strokeColor=#666666;" vertex="1" parent="155">
                    <mxGeometry x="20" y="185" width="160" height="20" as="geometry"/>
                </mxCell>
                <mxCell id="163" value="" style="rounded=1;whiteSpace=wrap;html=1;strokeWidth=1;fontSize=14;arcSize=50;strokeColor=none;fillColor=#18141D;" vertex="1" parent="155">
                    <mxGeometry x="50" y="374" width="100" height="5" as="geometry"/>
                </mxCell>
                <mxCell id="180" value="Enter" style="rounded=1;whiteSpace=wrap;html=1;strokeColor=none;strokeWidth=1;fontSize=14;fontColor=#18141D;fillColor=#AEF59D;" vertex="1" parent="155">
                    <mxGeometry x="63" y="220" width="75" height="20" as="geometry"/>
                </mxCell>
                <mxCell id="165" style="edgeStyle=none;rounded=0;html=1;exitX=1;exitY=0.5;exitDx=0;exitDy=0;entryX=0;entryY=0.5;entryDx=0;entryDy=0;strokeColor=#666666;fontSize=14;fontColor=#EEEEEE;fillColor=#f5f5f5;" edge="1" parent="1" source="156" target="14">
                    <mxGeometry relative="1" as="geometry"/>
                </mxCell>
                <mxCell id="166" value="" style="group;" vertex="1" connectable="0" parent="1">
                    <mxGeometry x="590" y="550" width="200" height="400" as="geometry"/>
                </mxCell>
                <mxCell id="167" value="" style="rounded=1;whiteSpace=wrap;html=1;fillColor=#18141D;" vertex="1" parent="166">
                    <mxGeometry width="200" height="390" as="geometry"/>
                </mxCell>
                <mxCell id="168" value="MAP OF NAVIGATION" style="rounded=1;whiteSpace=wrap;html=1;fillColor=#f5f5f5;fontColor=#333333;strokeColor=#666666;" vertex="1" parent="166">
                    <mxGeometry x="5" y="5" width="190" height="380" as="geometry"/>
                </mxCell>
                <mxCell id="169" value="" style="rounded=1;whiteSpace=wrap;html=1;arcSize=35;strokeColor=none;fillColor=#18141D;" vertex="1" parent="166">
                    <mxGeometry x="40" y="1" width="120" height="20" as="geometry"/>
                </mxCell>
                <mxCell id="174" value="" style="rounded=1;whiteSpace=wrap;html=1;strokeWidth=1;fontSize=14;arcSize=50;strokeColor=none;fillColor=#18141D;" vertex="1" parent="166">
                    <mxGeometry x="50" y="374" width="100" height="5" as="geometry"/>
                </mxCell>
                <mxCell id="68" value="&lt;b&gt;DIRECTIONS TO PICK UP&lt;/b&gt;" style="text;html=1;strokeColor=none;fillColor=#f5f5f5;align=center;verticalAlign=middle;whiteSpace=wrap;rounded=0;fontColor=#333333;" vertex="1" parent="166">
                    <mxGeometry x="10" y="30" width="180" height="15" as="geometry"/>
                </mxCell>
                <mxCell id="75" value="" style="group;fillColor=#f5f5f5;fontColor=#333333;strokeColor=none;" vertex="1" connectable="0" parent="166">
                    <mxGeometry x="20" y="55" width="90" height="20" as="geometry"/>
                </mxCell>
                <mxCell id="76" value="Child - XX:XX" style="rounded=1;whiteSpace=wrap;html=1;fillColor=#f5f5f5;fontColor=#333333;strokeColor=#666666;" vertex="1" parent="75">
                    <mxGeometry width="90" height="20" as="geometry"/>
                </mxCell>
                <mxCell id="99" value="" style="line;strokeWidth=1;html=1;rounded=0;fillColor=#f5f5f5;fontColor=#333333;strokeColor=#666666;" vertex="1" parent="166">
                    <mxGeometry x="5" y="50" width="190" height="10" as="geometry"/>
                </mxCell>
                <mxCell id="101" value="XX:XX" style="text;html=1;strokeColor=none;fillColor=none;align=center;verticalAlign=middle;whiteSpace=wrap;rounded=0;strokeWidth=1;fontColor=#18141D;fontSize=14;fontStyle=1" vertex="1" parent="166">
                    <mxGeometry x="70" y="317" width="60" height="30" as="geometry"/>
                </mxCell>
                <mxCell id="104" value="Stop" style="rounded=1;whiteSpace=wrap;html=1;strokeColor=none;strokeWidth=1;fontSize=14;fontColor=#EEEEEE;fillColor=#F54545;" vertex="1" parent="166">
                    <mxGeometry x="62.5" y="344" width="75" height="20" as="geometry"/>
                </mxCell>
                <mxCell id="100" value="" style="line;strokeWidth=1;html=1;rounded=0;fillColor=#f5f5f5;fontColor=#333333;strokeColor=#666666;" vertex="1" parent="166">
                    <mxGeometry x="5" y="314" width="190" height="10" as="geometry"/>
                </mxCell>
                <mxCell id="206" value="" style="group" vertex="1" connectable="0" parent="166">
                    <mxGeometry x="160" y="70" width="25" height="25" as="geometry"/>
                </mxCell>
                <mxCell id="207" value="" style="group;strokeColor=#F0F0F0;" vertex="1" connectable="0" parent="206">
                    <mxGeometry width="25" height="25" as="geometry"/>
                </mxCell>
                <mxCell id="208" value="" style="group" vertex="1" connectable="0" parent="207">
                    <mxGeometry width="25" height="25" as="geometry"/>
                </mxCell>
                <mxCell id="209" value="" style="rounded=1;whiteSpace=wrap;html=1;shadow=0;strokeColor=none;strokeWidth=1;fontSize=14;fontColor=#18141D;fillColor=#E6E6E6;" vertex="1" parent="208">
                    <mxGeometry width="25" height="25" as="geometry"/>
                </mxCell>
                <mxCell id="210" value="" style="line;strokeWidth=2;html=1;rounded=0;shadow=0;strokeColor=#666666;fontSize=14;fontColor=#333333;fillColor=#f5f5f5;" vertex="1" parent="208">
                    <mxGeometry x="7.5" y="7.5" width="10" height="10" as="geometry"/>
                </mxCell>
                <mxCell id="211" value="" style="line;strokeWidth=2;html=1;rounded=0;shadow=0;strokeColor=#666666;fontSize=14;fontColor=#333333;fillColor=#f5f5f5;" vertex="1" parent="208">
                    <mxGeometry x="7.5" y="4" width="10" height="10" as="geometry"/>
                </mxCell>
                <mxCell id="212" value="" style="line;strokeWidth=2;html=1;rounded=0;shadow=0;strokeColor=#666666;fontSize=14;fontColor=#333333;fillColor=#f5f5f5;" vertex="1" parent="208">
                    <mxGeometry x="7.5" y="11" width="10" height="10" as="geometry"/>
                </mxCell>
                <mxCell id="92" style="edgeStyle=none;html=1;entryX=1;entryY=0.5;entryDx=0;entryDy=0;fontColor=#18141D;fillColor=#f5f5f5;strokeColor=#666666;" edge="1" parent="1" source="91" target="76">
                    <mxGeometry relative="1" as="geometry"/>
                </mxCell>
                <mxCell id="103" style="edgeStyle=none;rounded=0;html=1;exitX=0;exitY=0.5;exitDx=0;exitDy=0;entryX=1;entryY=0.5;entryDx=0;entryDy=0;strokeColor=#666666;fontSize=14;fontColor=#18141D;fillColor=#f5f5f5;" edge="1" parent="1" source="102" target="101">
                    <mxGeometry relative="1" as="geometry"/>
                </mxCell>
                <mxCell id="175" style="edgeStyle=none;rounded=0;html=1;exitX=1;exitY=0.5;exitDx=0;exitDy=0;entryX=0;entryY=0.5;entryDx=0;entryDy=0;strokeColor=#666666;fontSize=14;fontColor=#EEEEEE;fillColor=#f5f5f5;" edge="1" parent="1" source="14" target="167">
                    <mxGeometry relative="1" as="geometry">
                        <Array as="points">
                            <mxPoint x="820" y="255"/>
                            <mxPoint x="820" y="480"/>
                            <mxPoint x="560" y="480"/>
                            <mxPoint x="560" y="745"/>
                        </Array>
                    </mxGeometry>
                </mxCell>
                <mxCell id="176" style="edgeStyle=none;rounded=0;html=1;exitX=1;exitY=0.5;exitDx=0;exitDy=0;entryX=0;entryY=0.5;entryDx=0;entryDy=0;strokeColor=#666666;fontSize=14;fontColor=#EEEEEE;fillColor=#f5f5f5;" edge="1" parent="1" source="156" target="167">
                    <mxGeometry relative="1" as="geometry">
                        <Array as="points">
                            <mxPoint x="560" y="255"/>
                            <mxPoint x="560" y="745"/>
                        </Array>
                    </mxGeometry>
                </mxCell>
                <mxCell id="178" value="Enter" style="rounded=1;whiteSpace=wrap;html=1;strokeColor=none;strokeWidth=1;fontSize=14;fontColor=#18141D;fillColor=#AEF59D;" vertex="1" parent="1">
                    <mxGeometry x="122.5" y="390" width="75" height="20" as="geometry"/>
                </mxCell>
                <mxCell id="182" style="edgeStyle=none;rounded=0;html=1;exitX=0.25;exitY=0;exitDx=0;exitDy=0;entryX=0.5;entryY=1;entryDx=0;entryDy=0;strokeColor=#666666;fontSize=14;fontColor=#18141D;fillColor=#f5f5f5;" edge="1" parent="1" source="181" target="142">
                    <mxGeometry relative="1" as="geometry"/>
                </mxCell>
                <mxCell id="183" style="edgeStyle=none;rounded=0;html=1;exitX=0.75;exitY=0;exitDx=0;exitDy=0;entryX=0.5;entryY=1;entryDx=0;entryDy=0;strokeColor=#666666;fontSize=14;fontColor=#18141D;fillColor=#f5f5f5;" edge="1" parent="1" source="181" target="156">
                    <mxGeometry relative="1" as="geometry"/>
                </mxCell>
                <mxCell id="181" value="Not necessary for MVP&lt;br&gt;&lt;br&gt;(subject to design change)" style="text;html=1;strokeColor=#666666;fillColor=#f5f5f5;align=center;verticalAlign=middle;whiteSpace=wrap;rounded=0;shadow=0;strokeWidth=1;fontSize=14;fontColor=#333333;" vertex="1" parent="1">
                    <mxGeometry x="180" y="520" width="130" height="100" as="geometry"/>
                </mxCell>
            </root>
        </mxGraphModel>
    </diagram>
</mxfile>